# xmcd
#
# Track frame offsets:
#	150
#	51572
#	85685
#	148053
#	183061
#	213438
#	250672
#	293162
#
# Disc length: 4235 seconds
#
# Revision: 0
# Processed by: cddbd v1.5.2PL0 Copyright (c) Steve Scherf et al.
# Submitted via: audiograbber 1.83.01
#
DISCID=71108908
DTITLE=Grateful Dead - 93-04-02 Nassau Veterans Memorial Coliseum, Uniondale NY
DYEAR=1900
DGENRE=
TTITLE0=Terrapin Station
TTITLE1=Corrina
TTITLE2=Drums
TTITLE3=Space
TTITLE4=The Last Time
TTITLE5=Black Peter
TTITLE6=Around and Around
TTITLE7=Brokedown Palace
EXTD=
EXTT0=
EXTT1=
EXTT2=
EXTT3=
EXTT4=
EXTT5=
EXTT6=
EXTT7=
PLAYORDER=
